<svg width="18.000000" height="14.625977" viewBox="0 0 18 14.626" fill="none" xmlns="http://www.w3.org/2000/svg" xmlns:xlink="http://www.w3.org/1999/xlink">
	<desc>
			Created with Pixso.
	</desc>
	<defs/>
	<path id="Vector" d="M5.66 14.62C12.45 14.62 16.16 8.99 16.16 4.11C16.16 3.95 16.16 3.79 16.15 3.64C16.88 3.11 17.5 2.47 18 1.72C17.32 2.02 16.61 2.22 15.87 2.31C16.64 1.84 17.22 1.12 17.5 0.26C16.77 0.69 15.98 1 15.15 1.16C14.6 0.57 13.86 0.17 13.06 0.04C12.26 -0.09 11.43 0.05 10.72 0.43C10 0.82 9.43 1.42 9.09 2.17C8.76 2.91 8.68 3.74 8.86 4.53C7.39 4.45 5.95 4.07 4.64 3.41C3.33 2.74 2.17 1.81 1.25 0.67C0.78 1.48 0.63 2.44 0.84 3.36C1.06 4.28 1.61 5.08 2.39 5.6C1.8 5.58 1.23 5.42 0.71 5.14C0.71 5.15 0.71 5.17 0.71 5.18C0.72 6.04 1.01 6.86 1.55 7.52C2.09 8.18 2.84 8.63 3.68 8.8C3.13 8.95 2.56 8.97 2.01 8.87C2.25 9.6 2.71 10.24 3.32 10.7C3.94 11.16 4.69 11.42 5.46 11.43C4.15 12.46 2.54 13.02 0.87 13.02C0.58 13.01 0.29 13 0 12.96C1.68 14.05 3.65 14.62 5.66 14.62L5.66 14.62Z" fill="#262626" fill-opacity="1.000000" fill-rule="nonzero"/>
</svg>
